<svg width="933" height="933" viewBox="0 0 933 933" fill="none" xmlns="http://www.w3.org/2000/svg">
<path fill-rule="evenodd" clip-rule="evenodd" d="M0 0H933V933H0V0ZM180.406 599.127V819H115.279V599.127H35.8652V548.844H115.279H180.406H261.676V599.127H180.406ZM239.596 720.66V716.764C239.596 702.044 241.699 688.499 245.904 676.129C250.11 663.635 256.295 652.812 264.459 643.658C272.623 634.505 282.704 627.392 294.703 622.32C306.702 617.125 320.556 614.527 336.266 614.527C352.099 614.527 366.015 617.125 378.014 622.32C390.136 627.392 400.279 634.505 408.443 643.658C416.607 652.812 422.792 663.635 426.998 676.129C431.204 688.499 433.307 702.044 433.307 716.764V720.66C433.307 735.257 431.204 748.801 426.998 761.295C422.792 773.665 416.607 784.488 408.443 793.766C400.279 802.919 390.198 810.032 378.199 815.104C366.201 820.175 352.346 822.711 336.637 822.711C320.927 822.711 307.011 820.175 294.889 815.104C282.766 810.032 272.623 802.919 264.459 793.766C256.295 784.488 250.11 773.665 245.904 761.295C241.699 748.801 239.596 735.257 239.596 720.66ZM302.125 716.764V720.66C302.125 728.206 302.682 735.257 303.795 741.812C304.908 748.368 306.764 754.12 309.361 759.068C311.959 763.893 315.484 767.665 319.938 770.387C324.391 773.108 329.957 774.469 336.637 774.469C343.193 774.469 348.635 773.108 352.965 770.387C357.418 767.665 360.943 763.893 363.541 759.068C366.139 754.12 367.994 748.368 369.107 741.812C370.221 735.257 370.777 728.206 370.777 720.66V716.764C370.777 709.466 370.221 702.6 369.107 696.168C367.994 689.612 366.139 683.86 363.541 678.912C360.943 673.841 357.418 669.882 352.965 667.037C348.512 664.192 342.945 662.77 336.266 662.77C329.71 662.77 324.205 664.192 319.752 667.037C315.423 669.882 311.959 673.841 309.361 678.912C306.764 683.86 304.908 689.612 303.795 696.168C302.682 702.6 302.125 709.466 302.125 716.764ZM551.871 819H529.234H491.939H464.107V548.844H490.826H529.234H550.943C569.251 548.844 586.012 551.998 601.227 558.307C616.565 564.492 629.801 573.398 640.934 585.025C652.19 596.529 660.849 610.198 666.91 626.031C673.095 641.741 676.188 659.182 676.188 678.355V689.674C676.188 708.723 673.095 726.165 666.91 741.998C660.849 757.831 652.252 771.5 641.119 783.004C629.986 794.508 616.812 803.414 601.598 809.723C586.507 815.908 569.931 819 551.871 819ZM551.871 768.902H529.234V599.127H550.943C560.468 599.127 568.88 600.797 576.178 604.137C583.6 607.477 589.784 612.486 594.732 619.166C599.68 625.722 603.391 633.948 605.865 643.844C608.463 653.616 609.762 664.996 609.762 677.984V689.674C609.762 706.992 607.473 721.588 602.896 733.463C598.443 745.214 591.887 754.059 583.229 759.996C574.693 765.934 564.241 768.902 551.871 768.902ZM699.381 720.66V716.764C699.381 702.044 701.484 688.499 705.689 676.129C709.895 663.635 716.08 652.812 724.244 643.658C732.408 634.505 742.49 627.392 754.488 622.32C766.487 617.125 780.341 614.527 796.051 614.527C811.884 614.527 825.8 617.125 837.799 622.32C849.921 627.392 860.064 634.505 868.229 643.658C876.393 652.812 882.577 663.635 886.783 676.129C890.989 688.499 893.092 702.044 893.092 716.764V720.66C893.092 735.257 890.989 748.801 886.783 761.295C882.577 773.665 876.393 784.488 868.229 793.766C860.064 802.919 849.983 810.032 837.984 815.104C825.986 820.175 812.132 822.711 796.422 822.711C780.712 822.711 766.796 820.175 754.674 815.104C742.551 810.032 732.408 802.919 724.244 793.766C716.08 784.488 709.895 773.665 705.689 761.295C701.484 748.801 699.381 735.257 699.381 720.66ZM761.91 716.764V720.66C761.91 728.206 762.467 735.257 763.58 741.812C764.693 748.368 766.549 754.12 769.146 759.068C771.744 763.893 775.27 767.665 779.723 770.387C784.176 773.108 789.742 774.469 796.422 774.469C802.978 774.469 808.421 773.108 812.75 770.387C817.203 767.665 820.729 763.893 823.326 759.068C825.924 754.12 827.779 748.368 828.893 741.812C830.006 735.257 830.562 728.206 830.562 720.66V716.764C830.562 709.466 830.006 702.6 828.893 696.168C827.779 689.612 825.924 683.86 823.326 678.912C820.729 673.841 817.203 669.882 812.75 667.037C808.297 664.192 802.73 662.77 796.051 662.77C789.495 662.77 783.99 664.192 779.537 667.037C775.208 669.882 771.744 673.841 769.146 678.912C766.549 683.86 764.693 689.612 763.58 696.168C762.467 702.6 761.91 709.466 761.91 716.764ZM262.723 282.34H305.398C327.046 282.34 345.662 278.753 361.248 271.578C376.958 264.28 389.018 254.137 397.43 241.148C405.841 228.16 410.047 212.945 410.047 195.504C410.047 177.815 405.841 162.105 397.43 148.375C389.018 134.521 376.958 123.635 361.248 115.719C345.662 107.802 327.046 103.844 305.398 103.844H197.596V374H262.723V282.34ZM262.723 232.057V154.127H305.398C314.552 154.127 321.974 156.106 327.664 160.064C333.354 163.899 337.498 168.971 340.096 175.279C342.817 181.588 344.178 188.453 344.178 195.875C344.178 202.802 342.817 209.049 340.096 214.615C337.498 220.058 333.354 224.326 327.664 227.418C321.974 230.51 314.552 232.057 305.398 232.057H262.723ZM518.035 374H485.936L428.602 103.844H493.172L524.229 272.945L561.268 103.844H584.646H593.367H616.561L654.357 273.356L685.398 103.844H749.783L692.449 374H660.535H651.629H625.096L588.911 219.985L553.475 374H526.941H518.035Z" fill="#E11D48"/>
</svg>
